<svg width="200" height="200" viewBox="0 0 200 200" xmlns="http://www.w3.org/2000/svg">
  <!-- Shield Shape -->
  <path d="M100 20 L40 50 L40 120 Q40 160 100 180 Q160 160 160 120 L160 50 Z" 
        fill="url(#shieldGradient)" stroke="url(#glowGradient)" stroke-width="3"/>
  
  <!-- Crown -->
  <path d="M70 40 L80 30 L90 40 L100 24 L110 40 L120 30 L130 40 L120 50 L80 50 Z" 
        fill="url(#crownGradient)" stroke="url(#glowGradient)" stroke-width="2"/>
  
  <!-- Circuit Pattern -->
  <g stroke="url(#circuitGradient)" stroke-width="2" fill="none">
    <path d="M60 70 L140 70 M80 60 L80 80 M120 60 L120 80"/>
    <path d="M70 90 L130 90 M90 80 L90 100 M110 80 L110 100"/>
    <path d="M60 110 L140 110 M80 100 L80 120 M120 100 L120 120"/>
    <circle cx="80" cy="70" r="3" fill="url(#circuitGradient)"/>
    <circle cx="120" cy="70" r="3" fill="url(#circuitGradient)"/>
    <circle cx="90" cy="90" r="3" fill="url(#circuitGradient)"/>
    <circle cx="110" cy="90" r="3" fill="url(#circuitGradient)"/>
    <circle cx="80" cy="110" r="3" fill="url(#circuitGradient)"/>
    <circle cx="120" cy="110" r="3" fill="url(#circuitGradient)"/>
  </g>
  
  <!-- Additional Circuit Details -->
  <g stroke="url(#circuitGradient)" stroke-width="1" fill="none" opacity="0.7">
    <path d="M65 75 L75 75 M85 75 L95 75 M105 75 L115 75 M125 75 L135 75"/>
    <path d="M65 95 L75 95 M85 95 L95 95 M105 95 L115 95 M125 95 L135 95"/>
    <path d="M65 115 L75 115 M85 115 L95 115 M105 115 L115 115 M125 115 L135 115"/>
  </g>
  
  <!-- Glow Effect -->
  <path d="M100 20 L40 50 L40 120 Q40 160 100 180 Q160 160 160 120 L160 50 Z" 
        fill="none" stroke="url(#outerGlow)" stroke-width="1" opacity="0.5"/>
  
  <!-- Gradients -->
  <defs>
    <linearGradient id="shieldGradient" x1="0%" y1="0%" x2="100%" y2="100%">
      <stop offset="0%" style="stop-color:#1E293B"/>
      <stop offset="50%" style="stop-color:#0F172A"/>
      <stop offset="100%" style="stop-color:#0A0E1A"/>
    </linearGradient>
    
    <linearGradient id="crownGradient" x1="0%" y1="0%" x2="100%" y2="100%">
      <stop offset="0%" style="stop-color:#00D4FF"/>
      <stop offset="50%" style="stop-color:#06B6D4"/>
      <stop offset="100%" style="stop-color:#22D3EE"/>
    </linearGradient>
    
    <linearGradient id="glowGradient" x1="0%" y1="0%" x2="100%" y2="100%">
      <stop offset="0%" style="stop-color:#00D4FF"/>
      <stop offset="100%" style="stop-color:#22D3EE"/>
    </linearGradient>
    
    <linearGradient id="circuitGradient" x1="0%" y1="0%" x2="100%" y2="100%">
      <stop offset="0%" style="stop-color:#00D4FF"/>
      <stop offset="50%" style="stop-color:#06B6D4"/>
      <stop offset="100%" style="stop-color:#22D3EE"/>
    </linearGradient>
    
    <linearGradient id="outerGlow" x1="0%" y1="0%" x2="100%" y2="100%">
      <stop offset="0%" style="stop-color:#00D4FF" stop-opacity="0.8"/>
      <stop offset="100%" style="stop-color:#22D3EE" stop-opacity="0.3"/>
    </linearGradient>
    
    <!-- Filters for glow effects -->
    <filter id="glow" x="-50%" y="-50%" width="200%" height="200%">
      <feGaussianBlur stdDeviation="3" result="coloredBlur"/>
      <feMerge> 
        <feMergeNode in="coloredBlur"/>
        <feMergeNode in="SourceGraphic"/>
      </feMerge>
    </filter>
  </defs>
  
  <!-- Apply glow filter to entire logo -->
  <style>
    svg {
      filter: url(#glow);
    }
  </style>
</svg>

